<?xml version="1.0" standalone="no"?>
<!DOCTYPE svg PUBLIC "-//W3C//DTD SVG 20010904//EN" "http://www.w3.org/TR/2001/REC-SVG-20010904/DTD/svg10.dtd">
<svg version="1.0" xmlns="http://www.w3.org/2000/svg" width="1024.000000pt" height="1024.000000pt"
  viewBox="0 0 1024.000000 1024.000000" preserveAspectRatio="xMidYMid meet">
  <metadata>
    Created by potrace 1.14, written by Peter Selinger 2001-2017
  </metadata>
  <g transform="translate(0.000000,1024.000000) scale(0.100000,-0.100000)" fill="#9e9e9e" stroke="none">
    <path d="M1679 10227 c-80 -11 -188 -68 -253 -133 -61 -62 -95 -116 -122 -196
-18 -51 -18 -234 -18 -4778 l0 -4725 23 -64 c57 -164 198 -287 361 -317 25 -4
1573 -8 3440 -9 2635 -1 3410 2 3461 11 190 35 347 196 377 385 4 30 8 1535 7
3344 l0 3290 -1365 1 c-751 1 -1388 4 -1416 7 -206 26 -376 192 -408 397 -3
19 -6 656 -6 1415 l-1 1380 -2013 0 c-1107 0 -2037 -3 -2067 -8z m5222 -4482
c56 -20 87 -49 112 -105 18 -38 21 -67 23 -190 2 -162 -11 -218 -63 -272 -57
-59 38 -57 -1853 -57 -1891 0 -1796 -2 -1853 57 -53 55 -65 110 -62 277 2 163
11 199 60 245 15 14 45 33 68 42 39 16 172 17 1783 17 1538 1 1747 -1 1785
-14z m1 -1281 c57 -19 94 -57 117 -120 15 -40 18 -76 17 -194 -2 -158 -15
-209 -68 -258 -60 -55 22 -52 -1867 -50 -1625 3 -1749 4 -1782 20 -39 19 -84
66 -102 107 -6 14 -11 94 -12 176 -2 170 9 220 58 272 61 65 -61 61 1853 62
1542 1 1746 -1 1786 -15z m-37 -1268 c50 -10 83 -27 117 -60 45 -45 55 -98 53
-268 -2 -167 -15 -213 -70 -257 -62 -48 11 -46 -1850 -46 l-1750 1 -46 21
c-52 24 -85 64 -104 126 -17 57 -14 298 5 355 26 82 89 122 210 134 63 7 3400
0 3435 -6z" />
    <path d="M6399 10206 c-3 -197 0 -2517 4 -2523 3 -4 578 -8 1279 -7 l1273 1 0
84 c1 46 -5 111 -12 144 -31 138 14 89 -1091 1196 -687 688 -1041 1036 -1077
1058 -94 57 -149 72 -267 75 l-108 2 -1 -30z" />
  </g>
</svg>